<svg xmlns="http://www.w3.org/2000/svg" width="36" height="10" viewBox="0 0 36 10"><rect width="13" height="8" fill="none"/><path d="M5.939,7.853.293,2.207A1,1,0,0,1,1.707.793L6.061,5.147,11.36.732a1,1,0,1,1,1.28,1.536Z" transform="translate(0 -0.2)"/><g transform="translate(43 8) rotate(180)"><rect width="13" height="8" transform="translate(15)" fill="none"/><path d="M5.939,7.853.293,2.207A1,1,0,0,1,1.707.793L6.061,5.147,11.36.732a1,1,0,1,1,1.28,1.536Z" transform="translate(15 -0.176)" fill="#f60000"/></g><g transform="translate(-14 -3)"><rect width="6" height="10" transform="translate(44 3)" fill="none"/><path d="M1,9.5a.5.5,0,0,1-.354-.854L4.293,5,.646,1.354A.5.5,0,0,1,1.354.646L5.707,5,1.354,9.354A.5.5,0,0,1,1,9.5Z" transform="translate(43.9 3)"/></g></svg>